<mxfile host="app.diagrams.net" modified="2024-04-23T15:16:15.470Z" agent="Mozilla/5.0 (Macintosh; Intel Mac OS X 10_15_7) AppleWebKit/537.36 (KHTML, like Gecko) Chrome/124.0.0.0 Safari/537.36" etag="H4S19Hc4G7ivRBejNoy6" version="24.2.8" type="github">
  <diagram id="C5RBs43oDa-KdzZeNtuy" name="Page-1">
    <mxGraphModel dx="954" dy="640" grid="1" gridSize="10" guides="1" tooltips="1" connect="1" arrows="1" fold="1" page="1" pageScale="1" pageWidth="827" pageHeight="1169" math="0" shadow="0">
      <root>
        <mxCell id="WIyWlLk6GJQsqaUBKTNV-0" />
        <mxCell id="WIyWlLk6GJQsqaUBKTNV-1" parent="WIyWlLk6GJQsqaUBKTNV-0" />
        <mxCell id="8RQmLL2k0cMVXBhUIcx8-6" style="edgeStyle=orthogonalEdgeStyle;rounded=0;orthogonalLoop=1;jettySize=auto;html=1;entryX=0.5;entryY=0;entryDx=0;entryDy=0;" edge="1" parent="WIyWlLk6GJQsqaUBKTNV-1" source="8RQmLL2k0cMVXBhUIcx8-1" target="8RQmLL2k0cMVXBhUIcx8-2">
          <mxGeometry relative="1" as="geometry" />
        </mxCell>
        <mxCell id="8RQmLL2k0cMVXBhUIcx8-1" value="下发任务到地方" style="rounded=1;whiteSpace=wrap;html=1;" vertex="1" parent="WIyWlLk6GJQsqaUBKTNV-1">
          <mxGeometry x="140" y="170" width="120" height="60" as="geometry" />
        </mxCell>
        <mxCell id="8RQmLL2k0cMVXBhUIcx8-7" style="edgeStyle=orthogonalEdgeStyle;rounded=0;orthogonalLoop=1;jettySize=auto;html=1;entryX=0.5;entryY=0;entryDx=0;entryDy=0;" edge="1" parent="WIyWlLk6GJQsqaUBKTNV-1" source="8RQmLL2k0cMVXBhUIcx8-2" target="8RQmLL2k0cMVXBhUIcx8-4">
          <mxGeometry relative="1" as="geometry" />
        </mxCell>
        <mxCell id="8RQmLL2k0cMVXBhUIcx8-2" value="填报企业数据、行业数据、地区数据" style="rounded=1;whiteSpace=wrap;html=1;" vertex="1" parent="WIyWlLk6GJQsqaUBKTNV-1">
          <mxGeometry x="140" y="290" width="120" height="60" as="geometry" />
        </mxCell>
        <mxCell id="8RQmLL2k0cMVXBhUIcx8-9" style="edgeStyle=orthogonalEdgeStyle;rounded=0;orthogonalLoop=1;jettySize=auto;html=1;entryX=0.5;entryY=0;entryDx=0;entryDy=0;" edge="1" parent="WIyWlLk6GJQsqaUBKTNV-1" source="8RQmLL2k0cMVXBhUIcx8-4" target="8RQmLL2k0cMVXBhUIcx8-8">
          <mxGeometry relative="1" as="geometry" />
        </mxCell>
        <mxCell id="8RQmLL2k0cMVXBhUIcx8-4" value="校验数据、合并数据、计算数据、保存数据" style="rounded=1;whiteSpace=wrap;html=1;" vertex="1" parent="WIyWlLk6GJQsqaUBKTNV-1">
          <mxGeometry x="140" y="410" width="120" height="60" as="geometry" />
        </mxCell>
        <mxCell id="8RQmLL2k0cMVXBhUIcx8-8" value="地方及国资委查看数据" style="rounded=1;whiteSpace=wrap;html=1;" vertex="1" parent="WIyWlLk6GJQsqaUBKTNV-1">
          <mxGeometry x="140" y="530" width="120" height="60" as="geometry" />
        </mxCell>
        <mxCell id="8RQmLL2k0cMVXBhUIcx8-12" style="edgeStyle=orthogonalEdgeStyle;rounded=0;orthogonalLoop=1;jettySize=auto;html=1;entryX=0.5;entryY=0;entryDx=0;entryDy=0;" edge="1" parent="WIyWlLk6GJQsqaUBKTNV-1" source="8RQmLL2k0cMVXBhUIcx8-13" target="8RQmLL2k0cMVXBhUIcx8-15">
          <mxGeometry relative="1" as="geometry" />
        </mxCell>
        <mxCell id="8RQmLL2k0cMVXBhUIcx8-13" value="下发任务到地方" style="rounded=1;whiteSpace=wrap;html=1;" vertex="1" parent="WIyWlLk6GJQsqaUBKTNV-1">
          <mxGeometry x="440" y="170" width="120" height="60" as="geometry" />
        </mxCell>
        <mxCell id="8RQmLL2k0cMVXBhUIcx8-14" style="edgeStyle=orthogonalEdgeStyle;rounded=0;orthogonalLoop=1;jettySize=auto;html=1;entryX=0.5;entryY=0;entryDx=0;entryDy=0;" edge="1" parent="WIyWlLk6GJQsqaUBKTNV-1" source="8RQmLL2k0cMVXBhUIcx8-15" target="8RQmLL2k0cMVXBhUIcx8-17">
          <mxGeometry relative="1" as="geometry" />
        </mxCell>
        <mxCell id="8RQmLL2k0cMVXBhUIcx8-15" value="填报企业数据、省级数据、地区数据" style="rounded=1;whiteSpace=wrap;html=1;" vertex="1" parent="WIyWlLk6GJQsqaUBKTNV-1">
          <mxGeometry x="440" y="290" width="120" height="60" as="geometry" />
        </mxCell>
        <mxCell id="8RQmLL2k0cMVXBhUIcx8-16" style="edgeStyle=orthogonalEdgeStyle;rounded=0;orthogonalLoop=1;jettySize=auto;html=1;entryX=0.5;entryY=0;entryDx=0;entryDy=0;" edge="1" parent="WIyWlLk6GJQsqaUBKTNV-1" source="8RQmLL2k0cMVXBhUIcx8-17" target="8RQmLL2k0cMVXBhUIcx8-18">
          <mxGeometry relative="1" as="geometry" />
        </mxCell>
        <mxCell id="8RQmLL2k0cMVXBhUIcx8-17" value="校验数据、合并数据、计算数据、保存数据" style="rounded=1;whiteSpace=wrap;html=1;" vertex="1" parent="WIyWlLk6GJQsqaUBKTNV-1">
          <mxGeometry x="440" y="410" width="120" height="60" as="geometry" />
        </mxCell>
        <mxCell id="8RQmLL2k0cMVXBhUIcx8-18" value="地方及国资委查看数据" style="rounded=1;whiteSpace=wrap;html=1;" vertex="1" parent="WIyWlLk6GJQsqaUBKTNV-1">
          <mxGeometry x="440" y="530" width="120" height="60" as="geometry" />
        </mxCell>
        <mxCell id="8RQmLL2k0cMVXBhUIcx8-21" style="edgeStyle=orthogonalEdgeStyle;rounded=0;orthogonalLoop=1;jettySize=auto;html=1;entryX=0.5;entryY=0;entryDx=0;entryDy=0;" edge="1" parent="WIyWlLk6GJQsqaUBKTNV-1" source="8RQmLL2k0cMVXBhUIcx8-20" target="8RQmLL2k0cMVXBhUIcx8-1">
          <mxGeometry relative="1" as="geometry" />
        </mxCell>
        <mxCell id="8RQmLL2k0cMVXBhUIcx8-20" value="年度用能预算" style="ellipse;whiteSpace=wrap;html=1;" vertex="1" parent="WIyWlLk6GJQsqaUBKTNV-1">
          <mxGeometry x="140" y="50" width="120" height="70" as="geometry" />
        </mxCell>
        <mxCell id="8RQmLL2k0cMVXBhUIcx8-23" style="edgeStyle=orthogonalEdgeStyle;rounded=0;orthogonalLoop=1;jettySize=auto;html=1;entryX=0.5;entryY=0;entryDx=0;entryDy=0;" edge="1" parent="WIyWlLk6GJQsqaUBKTNV-1" source="8RQmLL2k0cMVXBhUIcx8-22" target="8RQmLL2k0cMVXBhUIcx8-13">
          <mxGeometry relative="1" as="geometry" />
        </mxCell>
        <mxCell id="8RQmLL2k0cMVXBhUIcx8-22" value="化石能源消费预算" style="ellipse;whiteSpace=wrap;html=1;" vertex="1" parent="WIyWlLk6GJQsqaUBKTNV-1">
          <mxGeometry x="440" y="50" width="120" height="70" as="geometry" />
        </mxCell>
      </root>
    </mxGraphModel>
  </diagram>
</mxfile>
